# xmcd
#
# Track frame offsets: 
#        150
#        18975
#        38455
#        56537
#        79720
#        92340
#        114812
#        145455
#        159957
#        174095
#        187442
#        199282
#        212100
#        235785
#
# Disc length: 3351 seconds
#
# Revision: 2
# Processed by: cddbd v1.5.2PL0 Copyright (c) Steve Scherf et al.
# Submitted via: ExactAudioCopy v0.99pb5
#
DISCID=ad0d150e
DTITLE=Texas Tornados - Live From The Limo, Vol. 1
DYEAR=1900
DGENRE=Tex-Mex
TTITLE0=Hey Baby Kep-Pa So
TTITLE1=South Of The Border (Down Mexico Way)
TTITLE2=Soy De San Luis
TTITLE3=I Don't Want To Be Lonely
TTITLE4=Dinero
TTITLE5=Eighteen Yellow Roses
TTITLE6=La Mucura - A Mover El Bote
TTITLE7=Adios Mexico
TTITLE8=Marina
TTITLE9=Laredo Rose
TTITLE10=Nitty Gritty
TTITLE11=Wasted Days, Wasted Nights
TTITLE12=Mendocino
TTITLE13=Who Were You Thinking Of?
EXTD=
EXTT0=
EXTT1=
EXTT2=
EXTT3=
EXTT4=
EXTT5=
EXTT6=
EXTT7=
EXTT8=
EXTT9=
EXTT10=
EXTT11=
EXTT12=
EXTT13=
PLAYORDER=
